<svg xmlns="http://www.w3.org/2000/svg" xmlns:xlink="http://www.w3.org/1999/xlink" width="23" height="403" version="1.1" viewBox="0 0 23 403"><desc>Created with Sketch.</desc><defs><polygon id="path-1" points="0 5.989 0 .397 10.635 .397 10.635 5.989 0 5.989"/><polygon id="path-3" points=".385 .045 7.605 .045 7.605 11.033 .385 11.033 .385 .045"/><polygon id="path-5" points="10.72 .397 10.72 5.989 .085 5.989 .085 .397 10.72 .397"/><polygon id="path-7" points=".092 .045 6.86 .045 6.86 11.033 .092 11.033 .092 .045"/></defs><g id="Ganache-Landing-Page" fill="none" fill-rule="evenodd" stroke="none" stroke-width="1"><g id="Desktop-HD" transform="translate(-689.000000, -4575.000000)"><g id="Page-1" transform="translate(700.500000, 4776.500000) rotate(90.000000) translate(-700.500000, -4776.500000) translate(499.000000, 4765.000000)"><g id="Group-3" transform="translate(0.000000, 9.681818)"><mask id="mask-2" fill="#fff"><use xlink:href="#path-1"/></mask><path id="Fill-1" fill="#2A2825" d="M10.63525,3.19326545 C10.63525,3.19326545 5.72775,9.48442909 -0.00025,3.19326545 C-0.00025,3.19326545 5.72725,-3.09789818 10.63525,3.19326545" mask="url(#mask-2)"/></g><g id="Group-6" transform="translate(5.000000, 0.000000)"><mask id="mask-4" fill="#fff"><use xlink:href="#path-3"/></mask><path id="Fill-4" fill="#2A2825" d="M0.385386667,0.0441477273 C0.385386667,0.0441477273 2.45098667,8.45073864 7.60458667,11.0325341 C7.60458667,11.0325341 4.98325333,1.77994318 0.385386667,0.0441477273" mask="url(#mask-4)"/></g><path id="Fill-7" fill="#2A2825" d="M5,22.5 C5,22.5 7.5412234,13.5069165 12,11.8181818 C12,11.8181818 9.99711879,19.9939011 5,22.5"/><path id="Fill-9" fill="#2A2825" d="M23,11.8195314 C23,12.9990524 22.5524211,13.9545455 22,13.9545455 C21.4475789,13.9545455 21,12.9990524 21,11.8195314 C21,10.6391106 21.4475789,9.68181818 22,9.68181818 C22.5524211,9.68181818 23,10.6391106 23,11.8195314"/><g id="Group-13" transform="translate(392.000000, 9.681818)"><mask id="mask-6" fill="#fff"><use xlink:href="#path-5"/></mask><path id="Fill-11" fill="#2A2825" d="M0.08545,3.19326545 C0.08545,3.19326545 4.99245,9.48442909 10.72045,3.19326545 C10.72045,3.19326545 4.99445,-3.09789818 0.08545,3.19326545" mask="url(#mask-6)"/></g><g id="Group-16" transform="translate(390.000000, 0.000000)"><mask id="mask-8" fill="#fff"><use xlink:href="#path-7"/></mask><path id="Fill-14" fill="#2A2825" d="M6.85985,0.0441477273 C6.85985,0.0441477273 4.92335,8.45073864 0.09235,11.0325341 C0.09235,11.0325341 2.54935,1.77994318 6.85985,0.0441477273" mask="url(#mask-8)"/></g><path id="Fill-17" fill="#2A2825" d="M397,22.5 C397,22.5 394.458589,13.5069165 390,11.8181818 C390,11.8181818 392.001995,19.9939011 397,22.5"/><path id="Fill-19" fill="#2A2825" d="M380,11.8195314 C380,12.9990524 380.447346,13.9545455 381.000421,13.9545455 C381.552654,13.9545455 382,12.9990524 382,11.8195314 C382,10.6391106 381.552654,9.68181818 381.000421,9.68181818 C380.447346,9.68181818 380,10.6391106 380,11.8195314"/><path id="Fill-21" fill="#2A2825" d="M10,11.8181818 L397,11.8181818"/><path id="Fill-23" fill="#2A2825" d="M396.365546,11.8181818 L9.63394262,11.8181818 C9.28396945,11.8181818 9,11.3383614 9,10.7508614 C9,10.1607771 9.28396945,9.68181818 9.63394262,9.68181818 L396.365546,9.68181818 C396.716542,9.68181818 397,10.1607771 397,10.7508614 C397,11.3383614 396.716542,11.8181818 396.365546,11.8181818"/></g></g></g></svg>